<svg xmlns="http://www.w3.org/2000/svg" viewBox="0 0 192 192" width="192" height="192">
  <!-- Define styles -->
  <defs>
    <style>
      .bg-rounded-square {
        fill: #2563EB;
      }
      .book-icon {
        fill: white;
      }
    </style>
  </defs>

  <!-- Background: Rounded square -->
  <rect class="bg-rounded-square" x="12" y="12" width="168" height="168" rx="32" ry="32"/>

  <!-- Book icon: Open book shape -->
  <g class="book-icon" transform="translate(96, 96)">
    <!-- Left page -->
    <path d="M -28 -18 Q -28 -22 -24 -22 L -8 -22 L -8 22 Q -8 26 -12 26 L -28 24 Q -28 24 -28 20 Z" stroke="white" stroke-width="2" stroke-linejoin="round"/>

    <!-- Right page -->
    <path d="M 28 -18 Q 28 -22 24 -22 L 8 -22 L 8 22 Q 8 26 12 26 L 28 24 Q 28 24 28 20 Z" stroke="white" stroke-width="2" stroke-linejoin="round"/>

    <!-- Spine line -->
    <line x1="0" y1="-20" x2="0" y2="24" stroke="white" stroke-width="2" stroke-linecap="round"/>

    <!-- Page lines for detail -->
    <line x1="-22" y1="-8" x2="-12" y2="-8" stroke="white" stroke-width="1.5" stroke-linecap="round" opacity="0.8"/>
    <line x1="-22" y1="0" x2="-12" y2="0" stroke="white" stroke-width="1.5" stroke-linecap="round" opacity="0.8"/>
    <line x1="-22" y1="8" x2="-12" y2="8" stroke="white" stroke-width="1.5" stroke-linecap="round" opacity="0.8"/>

    <line x1="12" y1="-8" x2="22" y2="-8" stroke="white" stroke-width="1.5" stroke-linecap="round" opacity="0.8"/>
    <line x1="12" y1="0" x2="22" y2="0" stroke="white" stroke-width="1.5" stroke-linecap="round" opacity="0.8"/>
    <line x1="12" y1="8" x2="22" y2="8" stroke="white" stroke-width="1.5" stroke-linecap="round" opacity="0.8"/>
  </g>
</svg>