<svg xmlns="http://www.w3.org/2000/svg" viewBox="0 0 256 256">
  <!-- Define styles -->
  <defs>
    <style>
      .bg-rounded-square {
        fill: #2563EB;
      }
      .book-icon {
        fill: white;
      }
    </style>
  </defs>

  <!-- Background: Rounded square -->
  <rect class="bg-rounded-square" x="16" y="16" width="224" height="224" rx="42" ry="42"/>

  <!-- Book icon: Open book shape -->
  <g class="book-icon" transform="translate(128, 128)">
    <!-- Left page -->
    <path d="M -38 -25 Q -38 -30 -33 -30 L -10 -30 L -10 30 Q -10 35 -15 35 L -38 32 Q -38 32 -38 27 Z" stroke="white" stroke-width="2.5" stroke-linejoin="round" fill="none"/>

    <!-- Right page -->
    <path d="M 38 -25 Q 38 -30 33 -30 L 10 -30 L 10 30 Q 10 35 15 35 L 38 32 Q 38 32 38 27 Z" stroke="white" stroke-width="2.5" stroke-linejoin="round" fill="none"/>

    <!-- Spine line -->
    <line x1="0" y1="-28" x2="0" y2="32" stroke="white" stroke-width="2.5" stroke-linecap="round"/>

    <!-- Page lines for detail -->
    <line x1="-30" y1="-10" x2="-12" y2="-10" stroke="white" stroke-width="2" stroke-linecap="round" opacity="0.8"/>
    <line x1="-30" y1="3" x2="-12" y2="3" stroke="white" stroke-width="2" stroke-linecap="round" opacity="0.8"/>
    <line x1="-30" y1="16" x2="-12" y2="16" stroke="white" stroke-width="2" stroke-linecap="round" opacity="0.8"/>

    <line x1="12" y1="-10" x2="30" y2="-10" stroke="white" stroke-width="2" stroke-linecap="round" opacity="0.8"/>
    <line x1="12" y1="3" x2="30" y2="3" stroke="white" stroke-width="2" stroke-linecap="round" opacity="0.8"/>
    <line x1="12" y1="16" x2="30" y2="16" stroke="white" stroke-width="2" stroke-linecap="round" opacity="0.8"/>
  </g>
</svg>